G04 #@! TF.GenerationSoftware,KiCad,Pcbnew,(5.1.2)-1*
G04 #@! TF.CreationDate,2020-05-17T13:32:30+09:00*
G04 #@! TF.ProjectId,cs,63732e6b-6963-4616-945f-706362585858,v1.0*
G04 #@! TF.SameCoordinates,Original*
G04 #@! TF.FileFunction,Soldermask,Bot*
G04 #@! TF.FilePolarity,Negative*
%FSLAX46Y46*%
G04 Gerber Fmt 4.6, Leading zero omitted, Abs format (unit mm)*
G04 Created by KiCad (PCBNEW (5.1.2)-1) date 2020-05-17 13:32:30*
%MOMM*%
%LPD*%
G04 APERTURE LIST*
%ADD10C,0.100000*%
G04 APERTURE END LIST*
D10*
G36*
X185401000Y-90301000D02*
G01*
X183599000Y-90301000D01*
X183599000Y-88499000D01*
X185401000Y-88499000D01*
X185401000Y-90301000D01*
X185401000Y-90301000D01*
G37*
G36*
X182070442Y-88505518D02*
G01*
X182136627Y-88512037D01*
X182306466Y-88563557D01*
X182462991Y-88647222D01*
X182498729Y-88676552D01*
X182600186Y-88759814D01*
X182683448Y-88861271D01*
X182712778Y-88897009D01*
X182796443Y-89053534D01*
X182847963Y-89223373D01*
X182865359Y-89400000D01*
X182847963Y-89576627D01*
X182796443Y-89746466D01*
X182712778Y-89902991D01*
X182683448Y-89938729D01*
X182600186Y-90040186D01*
X182498729Y-90123448D01*
X182462991Y-90152778D01*
X182306466Y-90236443D01*
X182136627Y-90287963D01*
X182070443Y-90294481D01*
X182004260Y-90301000D01*
X181915740Y-90301000D01*
X181849557Y-90294481D01*
X181783373Y-90287963D01*
X181613534Y-90236443D01*
X181457009Y-90152778D01*
X181421271Y-90123448D01*
X181319814Y-90040186D01*
X181236552Y-89938729D01*
X181207222Y-89902991D01*
X181123557Y-89746466D01*
X181072037Y-89576627D01*
X181054641Y-89400000D01*
X181072037Y-89223373D01*
X181123557Y-89053534D01*
X181207222Y-88897009D01*
X181236552Y-88861271D01*
X181319814Y-88759814D01*
X181421271Y-88676552D01*
X181457009Y-88647222D01*
X181613534Y-88563557D01*
X181783373Y-88512037D01*
X181849558Y-88505518D01*
X181915740Y-88499000D01*
X182004260Y-88499000D01*
X182070442Y-88505518D01*
X182070442Y-88505518D01*
G37*
G36*
X179530442Y-88505518D02*
G01*
X179596627Y-88512037D01*
X179766466Y-88563557D01*
X179922991Y-88647222D01*
X179958729Y-88676552D01*
X180060186Y-88759814D01*
X180143448Y-88861271D01*
X180172778Y-88897009D01*
X180256443Y-89053534D01*
X180307963Y-89223373D01*
X180325359Y-89400000D01*
X180307963Y-89576627D01*
X180256443Y-89746466D01*
X180172778Y-89902991D01*
X180143448Y-89938729D01*
X180060186Y-90040186D01*
X179958729Y-90123448D01*
X179922991Y-90152778D01*
X179766466Y-90236443D01*
X179596627Y-90287963D01*
X179530443Y-90294481D01*
X179464260Y-90301000D01*
X179375740Y-90301000D01*
X179309557Y-90294481D01*
X179243373Y-90287963D01*
X179073534Y-90236443D01*
X178917009Y-90152778D01*
X178881271Y-90123448D01*
X178779814Y-90040186D01*
X178696552Y-89938729D01*
X178667222Y-89902991D01*
X178583557Y-89746466D01*
X178532037Y-89576627D01*
X178514641Y-89400000D01*
X178532037Y-89223373D01*
X178583557Y-89053534D01*
X178667222Y-88897009D01*
X178696552Y-88861271D01*
X178779814Y-88759814D01*
X178881271Y-88676552D01*
X178917009Y-88647222D01*
X179073534Y-88563557D01*
X179243373Y-88512037D01*
X179309558Y-88505518D01*
X179375740Y-88499000D01*
X179464260Y-88499000D01*
X179530442Y-88505518D01*
X179530442Y-88505518D01*
G37*
M02*
