G04 #@! TF.GenerationSoftware,KiCad,Pcbnew,(5.1.2)-1*
G04 #@! TF.CreationDate,2020-05-17T13:32:30+09:00*
G04 #@! TF.ProjectId,cs,63732e6b-6963-4616-945f-706362585858,v1.0*
G04 #@! TF.SameCoordinates,Original*
G04 #@! TF.FileFunction,Soldermask,Top*
G04 #@! TF.FilePolarity,Negative*
%FSLAX46Y46*%
G04 Gerber Fmt 4.6, Leading zero omitted, Abs format (unit mm)*
G04 Created by KiCad (PCBNEW (5.1.2)-1) date 2020-05-17 13:32:30*
%MOMM*%
%LPD*%
G04 APERTURE LIST*
%ADD10C,0.100000*%
G04 APERTURE END LIST*
D10*
G36*
X185401000Y-90301000D02*
G01*
X183599000Y-90301000D01*
X183599000Y-88499000D01*
X185401000Y-88499000D01*
X185401000Y-90301000D01*
X185401000Y-90301000D01*
G37*
G36*
X179530442Y-88505518D02*
G01*
X179596627Y-88512037D01*
X179766466Y-88563557D01*
X179922991Y-88647222D01*
X179958729Y-88676552D01*
X180060186Y-88759814D01*
X180143448Y-88861271D01*
X180172778Y-88897009D01*
X180256443Y-89053534D01*
X180307963Y-89223373D01*
X180325359Y-89400000D01*
X180307963Y-89576627D01*
X180256443Y-89746466D01*
X180172778Y-89902991D01*
X180143448Y-89938729D01*
X180060186Y-90040186D01*
X179958729Y-90123448D01*
X179922991Y-90152778D01*
X179766466Y-90236443D01*
X179596627Y-90287963D01*
X179530443Y-90294481D01*
X179464260Y-90301000D01*
X179375740Y-90301000D01*
X179309557Y-90294481D01*
X179243373Y-90287963D01*
X179073534Y-90236443D01*
X178917009Y-90152778D01*
X178881271Y-90123448D01*
X178779814Y-90040186D01*
X178696552Y-89938729D01*
X178667222Y-89902991D01*
X178583557Y-89746466D01*
X178532037Y-89576627D01*
X178514641Y-89400000D01*
X178532037Y-89223373D01*
X178583557Y-89053534D01*
X178667222Y-88897009D01*
X178696552Y-88861271D01*
X178779814Y-88759814D01*
X178881271Y-88676552D01*
X178917009Y-88647222D01*
X179073534Y-88563557D01*
X179243373Y-88512037D01*
X179309558Y-88505518D01*
X179375740Y-88499000D01*
X179464260Y-88499000D01*
X179530442Y-88505518D01*
X179530442Y-88505518D01*
G37*
G36*
X182070442Y-88505518D02*
G01*
X182136627Y-88512037D01*
X182306466Y-88563557D01*
X182462991Y-88647222D01*
X182498729Y-88676552D01*
X182600186Y-88759814D01*
X182683448Y-88861271D01*
X182712778Y-88897009D01*
X182796443Y-89053534D01*
X182847963Y-89223373D01*
X182865359Y-89400000D01*
X182847963Y-89576627D01*
X182796443Y-89746466D01*
X182712778Y-89902991D01*
X182683448Y-89938729D01*
X182600186Y-90040186D01*
X182498729Y-90123448D01*
X182462991Y-90152778D01*
X182306466Y-90236443D01*
X182136627Y-90287963D01*
X182070443Y-90294481D01*
X182004260Y-90301000D01*
X181915740Y-90301000D01*
X181849557Y-90294481D01*
X181783373Y-90287963D01*
X181613534Y-90236443D01*
X181457009Y-90152778D01*
X181421271Y-90123448D01*
X181319814Y-90040186D01*
X181236552Y-89938729D01*
X181207222Y-89902991D01*
X181123557Y-89746466D01*
X181072037Y-89576627D01*
X181054641Y-89400000D01*
X181072037Y-89223373D01*
X181123557Y-89053534D01*
X181207222Y-88897009D01*
X181236552Y-88861271D01*
X181319814Y-88759814D01*
X181421271Y-88676552D01*
X181457009Y-88647222D01*
X181613534Y-88563557D01*
X181783373Y-88512037D01*
X181849558Y-88505518D01*
X181915740Y-88499000D01*
X182004260Y-88499000D01*
X182070442Y-88505518D01*
X182070442Y-88505518D01*
G37*
G36*
X187392591Y-86978085D02*
G01*
X187426569Y-86988393D01*
X187457890Y-87005134D01*
X187485339Y-87027661D01*
X187507866Y-87055110D01*
X187524607Y-87086431D01*
X187534915Y-87120409D01*
X187539000Y-87161890D01*
X187539000Y-87838110D01*
X187534915Y-87879591D01*
X187524607Y-87913569D01*
X187507866Y-87944890D01*
X187485339Y-87972339D01*
X187457890Y-87994866D01*
X187426569Y-88011607D01*
X187392591Y-88021915D01*
X187351110Y-88026000D01*
X186749890Y-88026000D01*
X186708409Y-88021915D01*
X186674431Y-88011607D01*
X186643110Y-87994866D01*
X186615661Y-87972339D01*
X186593134Y-87944890D01*
X186576393Y-87913569D01*
X186566085Y-87879591D01*
X186562000Y-87838110D01*
X186562000Y-87161890D01*
X186566085Y-87120409D01*
X186576393Y-87086431D01*
X186593134Y-87055110D01*
X186615661Y-87027661D01*
X186643110Y-87005134D01*
X186674431Y-86988393D01*
X186708409Y-86978085D01*
X186749890Y-86974000D01*
X187351110Y-86974000D01*
X187392591Y-86978085D01*
X187392591Y-86978085D01*
G37*
G36*
X188967591Y-86978085D02*
G01*
X189001569Y-86988393D01*
X189032890Y-87005134D01*
X189060339Y-87027661D01*
X189082866Y-87055110D01*
X189099607Y-87086431D01*
X189109915Y-87120409D01*
X189114000Y-87161890D01*
X189114000Y-87838110D01*
X189109915Y-87879591D01*
X189099607Y-87913569D01*
X189082866Y-87944890D01*
X189060339Y-87972339D01*
X189032890Y-87994866D01*
X189001569Y-88011607D01*
X188967591Y-88021915D01*
X188926110Y-88026000D01*
X188324890Y-88026000D01*
X188283409Y-88021915D01*
X188249431Y-88011607D01*
X188218110Y-87994866D01*
X188190661Y-87972339D01*
X188168134Y-87944890D01*
X188151393Y-87913569D01*
X188141085Y-87879591D01*
X188137000Y-87838110D01*
X188137000Y-87161890D01*
X188141085Y-87120409D01*
X188151393Y-87086431D01*
X188168134Y-87055110D01*
X188190661Y-87027661D01*
X188218110Y-87005134D01*
X188249431Y-86988393D01*
X188283409Y-86978085D01*
X188324890Y-86974000D01*
X188926110Y-86974000D01*
X188967591Y-86978085D01*
X188967591Y-86978085D01*
G37*
G36*
X181847468Y-85503565D02*
G01*
X181886138Y-85515296D01*
X181921777Y-85534346D01*
X181953017Y-85559983D01*
X181978654Y-85591223D01*
X181997704Y-85626862D01*
X182009435Y-85665532D01*
X182014000Y-85711888D01*
X182014000Y-86788112D01*
X182009435Y-86834468D01*
X181997704Y-86873138D01*
X181978654Y-86908777D01*
X181953017Y-86940017D01*
X181921777Y-86965654D01*
X181886138Y-86984704D01*
X181847468Y-86996435D01*
X181801112Y-87001000D01*
X181149888Y-87001000D01*
X181103532Y-86996435D01*
X181064862Y-86984704D01*
X181029223Y-86965654D01*
X180997983Y-86940017D01*
X180972346Y-86908777D01*
X180953296Y-86873138D01*
X180941565Y-86834468D01*
X180937000Y-86788112D01*
X180937000Y-85711888D01*
X180941565Y-85665532D01*
X180953296Y-85626862D01*
X180972346Y-85591223D01*
X180997983Y-85559983D01*
X181029223Y-85534346D01*
X181064862Y-85515296D01*
X181103532Y-85503565D01*
X181149888Y-85499000D01*
X181801112Y-85499000D01*
X181847468Y-85503565D01*
X181847468Y-85503565D01*
G37*
G36*
X179972468Y-85503565D02*
G01*
X180011138Y-85515296D01*
X180046777Y-85534346D01*
X180078017Y-85559983D01*
X180103654Y-85591223D01*
X180122704Y-85626862D01*
X180134435Y-85665532D01*
X180139000Y-85711888D01*
X180139000Y-86788112D01*
X180134435Y-86834468D01*
X180122704Y-86873138D01*
X180103654Y-86908777D01*
X180078017Y-86940017D01*
X180046777Y-86965654D01*
X180011138Y-86984704D01*
X179972468Y-86996435D01*
X179926112Y-87001000D01*
X179274888Y-87001000D01*
X179228532Y-86996435D01*
X179189862Y-86984704D01*
X179154223Y-86965654D01*
X179122983Y-86940017D01*
X179097346Y-86908777D01*
X179078296Y-86873138D01*
X179066565Y-86834468D01*
X179062000Y-86788112D01*
X179062000Y-85711888D01*
X179066565Y-85665532D01*
X179078296Y-85626862D01*
X179097346Y-85591223D01*
X179122983Y-85559983D01*
X179154223Y-85534346D01*
X179189862Y-85515296D01*
X179228532Y-85503565D01*
X179274888Y-85499000D01*
X179926112Y-85499000D01*
X179972468Y-85503565D01*
X179972468Y-85503565D01*
G37*
G36*
X188967591Y-85253085D02*
G01*
X189001569Y-85263393D01*
X189032890Y-85280134D01*
X189060339Y-85302661D01*
X189082866Y-85330110D01*
X189099607Y-85361431D01*
X189109915Y-85395409D01*
X189114000Y-85436890D01*
X189114000Y-86113110D01*
X189109915Y-86154591D01*
X189099607Y-86188569D01*
X189082866Y-86219890D01*
X189060339Y-86247339D01*
X189032890Y-86269866D01*
X189001569Y-86286607D01*
X188967591Y-86296915D01*
X188926110Y-86301000D01*
X188324890Y-86301000D01*
X188283409Y-86296915D01*
X188249431Y-86286607D01*
X188218110Y-86269866D01*
X188190661Y-86247339D01*
X188168134Y-86219890D01*
X188151393Y-86188569D01*
X188141085Y-86154591D01*
X188137000Y-86113110D01*
X188137000Y-85436890D01*
X188141085Y-85395409D01*
X188151393Y-85361431D01*
X188168134Y-85330110D01*
X188190661Y-85302661D01*
X188218110Y-85280134D01*
X188249431Y-85263393D01*
X188283409Y-85253085D01*
X188324890Y-85249000D01*
X188926110Y-85249000D01*
X188967591Y-85253085D01*
X188967591Y-85253085D01*
G37*
G36*
X187392591Y-85253085D02*
G01*
X187426569Y-85263393D01*
X187457890Y-85280134D01*
X187485339Y-85302661D01*
X187507866Y-85330110D01*
X187524607Y-85361431D01*
X187534915Y-85395409D01*
X187539000Y-85436890D01*
X187539000Y-86113110D01*
X187534915Y-86154591D01*
X187524607Y-86188569D01*
X187507866Y-86219890D01*
X187485339Y-86247339D01*
X187457890Y-86269866D01*
X187426569Y-86286607D01*
X187392591Y-86296915D01*
X187351110Y-86301000D01*
X186749890Y-86301000D01*
X186708409Y-86296915D01*
X186674431Y-86286607D01*
X186643110Y-86269866D01*
X186615661Y-86247339D01*
X186593134Y-86219890D01*
X186576393Y-86188569D01*
X186566085Y-86154591D01*
X186562000Y-86113110D01*
X186562000Y-85436890D01*
X186566085Y-85395409D01*
X186576393Y-85361431D01*
X186593134Y-85330110D01*
X186615661Y-85302661D01*
X186643110Y-85280134D01*
X186674431Y-85263393D01*
X186708409Y-85253085D01*
X186749890Y-85249000D01*
X187351110Y-85249000D01*
X187392591Y-85253085D01*
X187392591Y-85253085D01*
G37*
G36*
X177529591Y-83941085D02*
G01*
X177563569Y-83951393D01*
X177594890Y-83968134D01*
X177622339Y-83990661D01*
X177644866Y-84018110D01*
X177661607Y-84049431D01*
X177671915Y-84083409D01*
X177676000Y-84124890D01*
X177676000Y-84726110D01*
X177671915Y-84767591D01*
X177661607Y-84801569D01*
X177644866Y-84832890D01*
X177622339Y-84860339D01*
X177594890Y-84882866D01*
X177563569Y-84899607D01*
X177529591Y-84909915D01*
X177488110Y-84914000D01*
X176811890Y-84914000D01*
X176770409Y-84909915D01*
X176736431Y-84899607D01*
X176705110Y-84882866D01*
X176677661Y-84860339D01*
X176655134Y-84832890D01*
X176638393Y-84801569D01*
X176628085Y-84767591D01*
X176624000Y-84726110D01*
X176624000Y-84124890D01*
X176628085Y-84083409D01*
X176638393Y-84049431D01*
X176655134Y-84018110D01*
X176677661Y-83990661D01*
X176705110Y-83968134D01*
X176736431Y-83951393D01*
X176770409Y-83941085D01*
X176811890Y-83937000D01*
X177488110Y-83937000D01*
X177529591Y-83941085D01*
X177529591Y-83941085D01*
G37*
G36*
X187479591Y-83641085D02*
G01*
X187513569Y-83651393D01*
X187544890Y-83668134D01*
X187572339Y-83690661D01*
X187594866Y-83718110D01*
X187611607Y-83749431D01*
X187621915Y-83783409D01*
X187626000Y-83824890D01*
X187626000Y-84426110D01*
X187621915Y-84467591D01*
X187611607Y-84501569D01*
X187594866Y-84532890D01*
X187572339Y-84560339D01*
X187544890Y-84582866D01*
X187513569Y-84599607D01*
X187479591Y-84609915D01*
X187438110Y-84614000D01*
X186761890Y-84614000D01*
X186720409Y-84609915D01*
X186686431Y-84599607D01*
X186655110Y-84582866D01*
X186627661Y-84560339D01*
X186605134Y-84532890D01*
X186588393Y-84501569D01*
X186578085Y-84467591D01*
X186574000Y-84426110D01*
X186574000Y-83824890D01*
X186578085Y-83783409D01*
X186588393Y-83749431D01*
X186605134Y-83718110D01*
X186627661Y-83690661D01*
X186655110Y-83668134D01*
X186686431Y-83651393D01*
X186720409Y-83641085D01*
X186761890Y-83637000D01*
X187438110Y-83637000D01*
X187479591Y-83641085D01*
X187479591Y-83641085D01*
G37*
G36*
X181155355Y-79600083D02*
G01*
X181160029Y-79601501D01*
X181164330Y-79603800D01*
X181170702Y-79609029D01*
X181191076Y-79622643D01*
X181213715Y-79632020D01*
X181237749Y-79636800D01*
X181262253Y-79636800D01*
X181286286Y-79632019D01*
X181308925Y-79622642D01*
X181329298Y-79609029D01*
X181335670Y-79603800D01*
X181339971Y-79601501D01*
X181344645Y-79600083D01*
X181355641Y-79599000D01*
X181644359Y-79599000D01*
X181655355Y-79600083D01*
X181660029Y-79601501D01*
X181664330Y-79603800D01*
X181670702Y-79609029D01*
X181691076Y-79622643D01*
X181713715Y-79632020D01*
X181737749Y-79636800D01*
X181762253Y-79636800D01*
X181786286Y-79632019D01*
X181808925Y-79622642D01*
X181829298Y-79609029D01*
X181835670Y-79603800D01*
X181839971Y-79601501D01*
X181844645Y-79600083D01*
X181855641Y-79599000D01*
X182144359Y-79599000D01*
X182155355Y-79600083D01*
X182160029Y-79601501D01*
X182164330Y-79603800D01*
X182170702Y-79609029D01*
X182191076Y-79622643D01*
X182213715Y-79632020D01*
X182237749Y-79636800D01*
X182262253Y-79636800D01*
X182286286Y-79632019D01*
X182308925Y-79622642D01*
X182329298Y-79609029D01*
X182335670Y-79603800D01*
X182339971Y-79601501D01*
X182344645Y-79600083D01*
X182355641Y-79599000D01*
X182644359Y-79599000D01*
X182655355Y-79600083D01*
X182660029Y-79601501D01*
X182664330Y-79603800D01*
X182670702Y-79609029D01*
X182691076Y-79622643D01*
X182713715Y-79632020D01*
X182737749Y-79636800D01*
X182762253Y-79636800D01*
X182786286Y-79632019D01*
X182808925Y-79622642D01*
X182829298Y-79609029D01*
X182835670Y-79603800D01*
X182839971Y-79601501D01*
X182844645Y-79600083D01*
X182855641Y-79599000D01*
X183144359Y-79599000D01*
X183155355Y-79600083D01*
X183160029Y-79601501D01*
X183164331Y-79603800D01*
X183168104Y-79606896D01*
X183171200Y-79610669D01*
X183173499Y-79614971D01*
X183174917Y-79619645D01*
X183176000Y-79630641D01*
X183176000Y-80494359D01*
X183174917Y-80505355D01*
X183173499Y-80510029D01*
X183171202Y-80514327D01*
X183164560Y-80522420D01*
X183150946Y-80542795D01*
X183141569Y-80565433D01*
X183136788Y-80589467D01*
X183136788Y-80613971D01*
X183141568Y-80638004D01*
X183150945Y-80660643D01*
X183164559Y-80681018D01*
X183181885Y-80698345D01*
X183202259Y-80711958D01*
X183229464Y-80726500D01*
X183253651Y-80746349D01*
X183273500Y-80770536D01*
X183288042Y-80797741D01*
X183301656Y-80818115D01*
X183318983Y-80835442D01*
X183339358Y-80849055D01*
X183361997Y-80858432D01*
X183386030Y-80863212D01*
X183410534Y-80863212D01*
X183434568Y-80858431D01*
X183457206Y-80849053D01*
X183477580Y-80835440D01*
X183485673Y-80828798D01*
X183489971Y-80826501D01*
X183494645Y-80825083D01*
X183505641Y-80824000D01*
X184369359Y-80824000D01*
X184380355Y-80825083D01*
X184385029Y-80826501D01*
X184389331Y-80828800D01*
X184393104Y-80831896D01*
X184396200Y-80835669D01*
X184398499Y-80839971D01*
X184399917Y-80844645D01*
X184401000Y-80855641D01*
X184401000Y-81144359D01*
X184399917Y-81155355D01*
X184398499Y-81160029D01*
X184396200Y-81164330D01*
X184390971Y-81170702D01*
X184377357Y-81191076D01*
X184367980Y-81213715D01*
X184363200Y-81237749D01*
X184363200Y-81262253D01*
X184367981Y-81286286D01*
X184377358Y-81308925D01*
X184390971Y-81329298D01*
X184396200Y-81335670D01*
X184398499Y-81339971D01*
X184399917Y-81344645D01*
X184401000Y-81355641D01*
X184401000Y-81644359D01*
X184399917Y-81655355D01*
X184398499Y-81660029D01*
X184396200Y-81664330D01*
X184390971Y-81670702D01*
X184377357Y-81691076D01*
X184367980Y-81713715D01*
X184363200Y-81737749D01*
X184363200Y-81762253D01*
X184367981Y-81786286D01*
X184377358Y-81808925D01*
X184390971Y-81829298D01*
X184396200Y-81835670D01*
X184398499Y-81839971D01*
X184399917Y-81844645D01*
X184401000Y-81855641D01*
X184401000Y-82144359D01*
X184399917Y-82155355D01*
X184398499Y-82160029D01*
X184396200Y-82164330D01*
X184390971Y-82170702D01*
X184377357Y-82191076D01*
X184367980Y-82213715D01*
X184363200Y-82237749D01*
X184363200Y-82262253D01*
X184367981Y-82286286D01*
X184377358Y-82308925D01*
X184390971Y-82329298D01*
X184396200Y-82335670D01*
X184398499Y-82339971D01*
X184399917Y-82344645D01*
X184401000Y-82355641D01*
X184401000Y-82644359D01*
X184399917Y-82655355D01*
X184398499Y-82660029D01*
X184396200Y-82664330D01*
X184390971Y-82670702D01*
X184377357Y-82691076D01*
X184367980Y-82713715D01*
X184363200Y-82737749D01*
X184363200Y-82762253D01*
X184367981Y-82786286D01*
X184377358Y-82808925D01*
X184390971Y-82829298D01*
X184396200Y-82835670D01*
X184398499Y-82839971D01*
X184399917Y-82844645D01*
X184401000Y-82855641D01*
X184401000Y-83144359D01*
X184399917Y-83155355D01*
X184398499Y-83160029D01*
X184396200Y-83164331D01*
X184393104Y-83168104D01*
X184389331Y-83171200D01*
X184385029Y-83173499D01*
X184380355Y-83174917D01*
X184369359Y-83176000D01*
X183505641Y-83176000D01*
X183494645Y-83174917D01*
X183489971Y-83173499D01*
X183485673Y-83171202D01*
X183477580Y-83164560D01*
X183457205Y-83150946D01*
X183434567Y-83141569D01*
X183410533Y-83136788D01*
X183386029Y-83136788D01*
X183361996Y-83141568D01*
X183339357Y-83150945D01*
X183318982Y-83164559D01*
X183301655Y-83181885D01*
X183288042Y-83202259D01*
X183273500Y-83229464D01*
X183253651Y-83253651D01*
X183229464Y-83273500D01*
X183202259Y-83288042D01*
X183181885Y-83301656D01*
X183164558Y-83318983D01*
X183150945Y-83339358D01*
X183141568Y-83361997D01*
X183136788Y-83386030D01*
X183136788Y-83410534D01*
X183141569Y-83434568D01*
X183150947Y-83457206D01*
X183164560Y-83477580D01*
X183171202Y-83485673D01*
X183173499Y-83489971D01*
X183174917Y-83494645D01*
X183176000Y-83505641D01*
X183176000Y-84369359D01*
X183174917Y-84380355D01*
X183173499Y-84385029D01*
X183171200Y-84389331D01*
X183168104Y-84393104D01*
X183164331Y-84396200D01*
X183160029Y-84398499D01*
X183155355Y-84399917D01*
X183144359Y-84401000D01*
X182855641Y-84401000D01*
X182844645Y-84399917D01*
X182839971Y-84398499D01*
X182835670Y-84396200D01*
X182829298Y-84390971D01*
X182808924Y-84377357D01*
X182786285Y-84367980D01*
X182762251Y-84363200D01*
X182737747Y-84363200D01*
X182713714Y-84367981D01*
X182691075Y-84377358D01*
X182670702Y-84390971D01*
X182664330Y-84396200D01*
X182660029Y-84398499D01*
X182655355Y-84399917D01*
X182644359Y-84401000D01*
X182355641Y-84401000D01*
X182344645Y-84399917D01*
X182339971Y-84398499D01*
X182335670Y-84396200D01*
X182329298Y-84390971D01*
X182308924Y-84377357D01*
X182286285Y-84367980D01*
X182262251Y-84363200D01*
X182237747Y-84363200D01*
X182213714Y-84367981D01*
X182191075Y-84377358D01*
X182170702Y-84390971D01*
X182164330Y-84396200D01*
X182160029Y-84398499D01*
X182155355Y-84399917D01*
X182144359Y-84401000D01*
X181855641Y-84401000D01*
X181844645Y-84399917D01*
X181839971Y-84398499D01*
X181835670Y-84396200D01*
X181829298Y-84390971D01*
X181808924Y-84377357D01*
X181786285Y-84367980D01*
X181762251Y-84363200D01*
X181737747Y-84363200D01*
X181713714Y-84367981D01*
X181691075Y-84377358D01*
X181670702Y-84390971D01*
X181664330Y-84396200D01*
X181660029Y-84398499D01*
X181655355Y-84399917D01*
X181644359Y-84401000D01*
X181355641Y-84401000D01*
X181344645Y-84399917D01*
X181339971Y-84398499D01*
X181335670Y-84396200D01*
X181329298Y-84390971D01*
X181308924Y-84377357D01*
X181286285Y-84367980D01*
X181262251Y-84363200D01*
X181237747Y-84363200D01*
X181213714Y-84367981D01*
X181191075Y-84377358D01*
X181170702Y-84390971D01*
X181164330Y-84396200D01*
X181160029Y-84398499D01*
X181155355Y-84399917D01*
X181144359Y-84401000D01*
X180855641Y-84401000D01*
X180844645Y-84399917D01*
X180839971Y-84398499D01*
X180835669Y-84396200D01*
X180831896Y-84393104D01*
X180828800Y-84389331D01*
X180826501Y-84385029D01*
X180825083Y-84380355D01*
X180824000Y-84369359D01*
X180824000Y-83505641D01*
X180825083Y-83494645D01*
X180826501Y-83489971D01*
X180828798Y-83485673D01*
X180835440Y-83477580D01*
X180849054Y-83457205D01*
X180858431Y-83434567D01*
X180863212Y-83410533D01*
X180863212Y-83386029D01*
X180858432Y-83361996D01*
X180849055Y-83339357D01*
X180835441Y-83318982D01*
X180818115Y-83301655D01*
X180797741Y-83288042D01*
X180770536Y-83273500D01*
X180746349Y-83253651D01*
X180726500Y-83229464D01*
X180711958Y-83202259D01*
X180698344Y-83181885D01*
X180681017Y-83164558D01*
X180660642Y-83150945D01*
X180638003Y-83141568D01*
X180613970Y-83136788D01*
X180589466Y-83136788D01*
X180565432Y-83141569D01*
X180542794Y-83150947D01*
X180522420Y-83164560D01*
X180514327Y-83171202D01*
X180510029Y-83173499D01*
X180505355Y-83174917D01*
X180494359Y-83176000D01*
X179630641Y-83176000D01*
X179619645Y-83174917D01*
X179614971Y-83173499D01*
X179610669Y-83171200D01*
X179606896Y-83168104D01*
X179603800Y-83164331D01*
X179601501Y-83160029D01*
X179600083Y-83155355D01*
X179599000Y-83144359D01*
X179599000Y-82855641D01*
X179600083Y-82844645D01*
X179601501Y-82839971D01*
X179603800Y-82835670D01*
X179609029Y-82829298D01*
X179622643Y-82808924D01*
X179632020Y-82786285D01*
X179636800Y-82762251D01*
X179636800Y-82737747D01*
X179632019Y-82713714D01*
X179622642Y-82691075D01*
X179609029Y-82670702D01*
X179603800Y-82664330D01*
X179601501Y-82660029D01*
X179600083Y-82655355D01*
X179599000Y-82644359D01*
X179599000Y-82355641D01*
X179600083Y-82344645D01*
X179601501Y-82339971D01*
X179603800Y-82335670D01*
X179609029Y-82329298D01*
X179622643Y-82308924D01*
X179632020Y-82286285D01*
X179636800Y-82262251D01*
X179636800Y-82237747D01*
X179632019Y-82213714D01*
X179622642Y-82191075D01*
X179609029Y-82170702D01*
X179603800Y-82164330D01*
X179601501Y-82160029D01*
X179600083Y-82155355D01*
X179599000Y-82144359D01*
X179599000Y-81855641D01*
X179600083Y-81844645D01*
X179601501Y-81839971D01*
X179603800Y-81835670D01*
X179609029Y-81829298D01*
X179622643Y-81808924D01*
X179632020Y-81786285D01*
X179636800Y-81762251D01*
X179636800Y-81737747D01*
X179632019Y-81713714D01*
X179622642Y-81691075D01*
X179609029Y-81670702D01*
X179603800Y-81664330D01*
X179601501Y-81660029D01*
X179600083Y-81655355D01*
X179599000Y-81644359D01*
X179599000Y-81355641D01*
X179600083Y-81344645D01*
X179601501Y-81339971D01*
X179603800Y-81335670D01*
X179609029Y-81329298D01*
X179622643Y-81308924D01*
X179632020Y-81286285D01*
X179636800Y-81262251D01*
X179636800Y-81237747D01*
X179632019Y-81213714D01*
X179622642Y-81191075D01*
X179609029Y-81170702D01*
X179603800Y-81164330D01*
X179601501Y-81160029D01*
X179600083Y-81155355D01*
X179599000Y-81144359D01*
X179599000Y-80855641D01*
X179600083Y-80844645D01*
X179601501Y-80839971D01*
X179603800Y-80835669D01*
X179606896Y-80831896D01*
X179610669Y-80828800D01*
X179614971Y-80826501D01*
X179619645Y-80825083D01*
X179630641Y-80824000D01*
X180494359Y-80824000D01*
X180505355Y-80825083D01*
X180510029Y-80826501D01*
X180514327Y-80828798D01*
X180522420Y-80835440D01*
X180542795Y-80849054D01*
X180565433Y-80858431D01*
X180589467Y-80863212D01*
X180613971Y-80863212D01*
X180638004Y-80858432D01*
X180660643Y-80849055D01*
X180681018Y-80835441D01*
X180698345Y-80818115D01*
X180711958Y-80797741D01*
X180726500Y-80770536D01*
X180746349Y-80746349D01*
X180770536Y-80726500D01*
X180797741Y-80711958D01*
X180818115Y-80698344D01*
X180835442Y-80681017D01*
X180849055Y-80660642D01*
X180858432Y-80638003D01*
X180863212Y-80613970D01*
X180863212Y-80589466D01*
X180858431Y-80565432D01*
X180849053Y-80542794D01*
X180835440Y-80522420D01*
X180828798Y-80514327D01*
X180826501Y-80510029D01*
X180825083Y-80505355D01*
X180824000Y-80494359D01*
X180824000Y-79630641D01*
X180825083Y-79619645D01*
X180826501Y-79614971D01*
X180828800Y-79610669D01*
X180831896Y-79606896D01*
X180835669Y-79603800D01*
X180839971Y-79601501D01*
X180844645Y-79600083D01*
X180855641Y-79599000D01*
X181144359Y-79599000D01*
X181155355Y-79600083D01*
X181155355Y-79600083D01*
G37*
G36*
X177529591Y-82366085D02*
G01*
X177563569Y-82376393D01*
X177594890Y-82393134D01*
X177622339Y-82415661D01*
X177644866Y-82443110D01*
X177661607Y-82474431D01*
X177671915Y-82508409D01*
X177676000Y-82549890D01*
X177676000Y-83151110D01*
X177671915Y-83192591D01*
X177661607Y-83226569D01*
X177644866Y-83257890D01*
X177622339Y-83285339D01*
X177594890Y-83307866D01*
X177563569Y-83324607D01*
X177529591Y-83334915D01*
X177488110Y-83339000D01*
X176811890Y-83339000D01*
X176770409Y-83334915D01*
X176736431Y-83324607D01*
X176705110Y-83307866D01*
X176677661Y-83285339D01*
X176655134Y-83257890D01*
X176638393Y-83226569D01*
X176628085Y-83192591D01*
X176624000Y-83151110D01*
X176624000Y-82549890D01*
X176628085Y-82508409D01*
X176638393Y-82474431D01*
X176655134Y-82443110D01*
X176677661Y-82415661D01*
X176705110Y-82393134D01*
X176736431Y-82376393D01*
X176770409Y-82366085D01*
X176811890Y-82362000D01*
X177488110Y-82362000D01*
X177529591Y-82366085D01*
X177529591Y-82366085D01*
G37*
G36*
X187479591Y-82066085D02*
G01*
X187513569Y-82076393D01*
X187544890Y-82093134D01*
X187572339Y-82115661D01*
X187594866Y-82143110D01*
X187611607Y-82174431D01*
X187621915Y-82208409D01*
X187626000Y-82249890D01*
X187626000Y-82851110D01*
X187621915Y-82892591D01*
X187611607Y-82926569D01*
X187594866Y-82957890D01*
X187572339Y-82985339D01*
X187544890Y-83007866D01*
X187513569Y-83024607D01*
X187479591Y-83034915D01*
X187438110Y-83039000D01*
X186761890Y-83039000D01*
X186720409Y-83034915D01*
X186686431Y-83024607D01*
X186655110Y-83007866D01*
X186627661Y-82985339D01*
X186605134Y-82957890D01*
X186588393Y-82926569D01*
X186578085Y-82892591D01*
X186574000Y-82851110D01*
X186574000Y-82249890D01*
X186578085Y-82208409D01*
X186588393Y-82174431D01*
X186605134Y-82143110D01*
X186627661Y-82115661D01*
X186655110Y-82093134D01*
X186686431Y-82076393D01*
X186720409Y-82066085D01*
X186761890Y-82062000D01*
X187438110Y-82062000D01*
X187479591Y-82066085D01*
X187479591Y-82066085D01*
G37*
G36*
X177529591Y-80715085D02*
G01*
X177563569Y-80725393D01*
X177594890Y-80742134D01*
X177622339Y-80764661D01*
X177644866Y-80792110D01*
X177661607Y-80823431D01*
X177671915Y-80857409D01*
X177676000Y-80898890D01*
X177676000Y-81500110D01*
X177671915Y-81541591D01*
X177661607Y-81575569D01*
X177644866Y-81606890D01*
X177622339Y-81634339D01*
X177594890Y-81656866D01*
X177563569Y-81673607D01*
X177529591Y-81683915D01*
X177488110Y-81688000D01*
X176811890Y-81688000D01*
X176770409Y-81683915D01*
X176736431Y-81673607D01*
X176705110Y-81656866D01*
X176677661Y-81634339D01*
X176655134Y-81606890D01*
X176638393Y-81575569D01*
X176628085Y-81541591D01*
X176624000Y-81500110D01*
X176624000Y-80898890D01*
X176628085Y-80857409D01*
X176638393Y-80823431D01*
X176655134Y-80792110D01*
X176677661Y-80764661D01*
X176705110Y-80742134D01*
X176736431Y-80725393D01*
X176770409Y-80715085D01*
X176811890Y-80711000D01*
X177488110Y-80711000D01*
X177529591Y-80715085D01*
X177529591Y-80715085D01*
G37*
G36*
X187479591Y-80465085D02*
G01*
X187513569Y-80475393D01*
X187544890Y-80492134D01*
X187572339Y-80514661D01*
X187594866Y-80542110D01*
X187611607Y-80573431D01*
X187621915Y-80607409D01*
X187626000Y-80648890D01*
X187626000Y-81250110D01*
X187621915Y-81291591D01*
X187611607Y-81325569D01*
X187594866Y-81356890D01*
X187572339Y-81384339D01*
X187544890Y-81406866D01*
X187513569Y-81423607D01*
X187479591Y-81433915D01*
X187438110Y-81438000D01*
X186761890Y-81438000D01*
X186720409Y-81433915D01*
X186686431Y-81423607D01*
X186655110Y-81406866D01*
X186627661Y-81384339D01*
X186605134Y-81356890D01*
X186588393Y-81325569D01*
X186578085Y-81291591D01*
X186574000Y-81250110D01*
X186574000Y-80648890D01*
X186578085Y-80607409D01*
X186588393Y-80573431D01*
X186605134Y-80542110D01*
X186627661Y-80514661D01*
X186655110Y-80492134D01*
X186686431Y-80475393D01*
X186720409Y-80465085D01*
X186761890Y-80461000D01*
X187438110Y-80461000D01*
X187479591Y-80465085D01*
X187479591Y-80465085D01*
G37*
G36*
X177529591Y-79140085D02*
G01*
X177563569Y-79150393D01*
X177594890Y-79167134D01*
X177622339Y-79189661D01*
X177644866Y-79217110D01*
X177661607Y-79248431D01*
X177671915Y-79282409D01*
X177676000Y-79323890D01*
X177676000Y-79925110D01*
X177671915Y-79966591D01*
X177661607Y-80000569D01*
X177644866Y-80031890D01*
X177622339Y-80059339D01*
X177594890Y-80081866D01*
X177563569Y-80098607D01*
X177529591Y-80108915D01*
X177488110Y-80113000D01*
X176811890Y-80113000D01*
X176770409Y-80108915D01*
X176736431Y-80098607D01*
X176705110Y-80081866D01*
X176677661Y-80059339D01*
X176655134Y-80031890D01*
X176638393Y-80000569D01*
X176628085Y-79966591D01*
X176624000Y-79925110D01*
X176624000Y-79323890D01*
X176628085Y-79282409D01*
X176638393Y-79248431D01*
X176655134Y-79217110D01*
X176677661Y-79189661D01*
X176705110Y-79167134D01*
X176736431Y-79150393D01*
X176770409Y-79140085D01*
X176811890Y-79136000D01*
X177488110Y-79136000D01*
X177529591Y-79140085D01*
X177529591Y-79140085D01*
G37*
G36*
X187479591Y-78890085D02*
G01*
X187513569Y-78900393D01*
X187544890Y-78917134D01*
X187572339Y-78939661D01*
X187594866Y-78967110D01*
X187611607Y-78998431D01*
X187621915Y-79032409D01*
X187626000Y-79073890D01*
X187626000Y-79675110D01*
X187621915Y-79716591D01*
X187611607Y-79750569D01*
X187594866Y-79781890D01*
X187572339Y-79809339D01*
X187544890Y-79831866D01*
X187513569Y-79848607D01*
X187479591Y-79858915D01*
X187438110Y-79863000D01*
X186761890Y-79863000D01*
X186720409Y-79858915D01*
X186686431Y-79848607D01*
X186655110Y-79831866D01*
X186627661Y-79809339D01*
X186605134Y-79781890D01*
X186588393Y-79750569D01*
X186578085Y-79716591D01*
X186574000Y-79675110D01*
X186574000Y-79073890D01*
X186578085Y-79032409D01*
X186588393Y-78998431D01*
X186605134Y-78967110D01*
X186627661Y-78939661D01*
X186655110Y-78917134D01*
X186686431Y-78900393D01*
X186720409Y-78890085D01*
X186761890Y-78886000D01*
X187438110Y-78886000D01*
X187479591Y-78890085D01*
X187479591Y-78890085D01*
G37*
G36*
X188292591Y-76553085D02*
G01*
X188326569Y-76563393D01*
X188357890Y-76580134D01*
X188385339Y-76602661D01*
X188407866Y-76630110D01*
X188424607Y-76661431D01*
X188434915Y-76695409D01*
X188439000Y-76736890D01*
X188439000Y-77413110D01*
X188434915Y-77454591D01*
X188424607Y-77488569D01*
X188407866Y-77519890D01*
X188385339Y-77547339D01*
X188357890Y-77569866D01*
X188326569Y-77586607D01*
X188292591Y-77596915D01*
X188251110Y-77601000D01*
X187649890Y-77601000D01*
X187608409Y-77596915D01*
X187574431Y-77586607D01*
X187543110Y-77569866D01*
X187515661Y-77547339D01*
X187493134Y-77519890D01*
X187476393Y-77488569D01*
X187466085Y-77454591D01*
X187462000Y-77413110D01*
X187462000Y-76736890D01*
X187466085Y-76695409D01*
X187476393Y-76661431D01*
X187493134Y-76630110D01*
X187515661Y-76602661D01*
X187543110Y-76580134D01*
X187574431Y-76563393D01*
X187608409Y-76553085D01*
X187649890Y-76549000D01*
X188251110Y-76549000D01*
X188292591Y-76553085D01*
X188292591Y-76553085D01*
G37*
G36*
X189867591Y-76553085D02*
G01*
X189901569Y-76563393D01*
X189932890Y-76580134D01*
X189960339Y-76602661D01*
X189982866Y-76630110D01*
X189999607Y-76661431D01*
X190009915Y-76695409D01*
X190014000Y-76736890D01*
X190014000Y-77413110D01*
X190009915Y-77454591D01*
X189999607Y-77488569D01*
X189982866Y-77519890D01*
X189960339Y-77547339D01*
X189932890Y-77569866D01*
X189901569Y-77586607D01*
X189867591Y-77596915D01*
X189826110Y-77601000D01*
X189224890Y-77601000D01*
X189183409Y-77596915D01*
X189149431Y-77586607D01*
X189118110Y-77569866D01*
X189090661Y-77547339D01*
X189068134Y-77519890D01*
X189051393Y-77488569D01*
X189041085Y-77454591D01*
X189037000Y-77413110D01*
X189037000Y-76736890D01*
X189041085Y-76695409D01*
X189051393Y-76661431D01*
X189068134Y-76630110D01*
X189090661Y-76602661D01*
X189118110Y-76580134D01*
X189149431Y-76563393D01*
X189183409Y-76553085D01*
X189224890Y-76549000D01*
X189826110Y-76549000D01*
X189867591Y-76553085D01*
X189867591Y-76553085D01*
G37*
G36*
X186667591Y-76553085D02*
G01*
X186701569Y-76563393D01*
X186732890Y-76580134D01*
X186760339Y-76602661D01*
X186782866Y-76630110D01*
X186799607Y-76661431D01*
X186809915Y-76695409D01*
X186814000Y-76736890D01*
X186814000Y-77413110D01*
X186809915Y-77454591D01*
X186799607Y-77488569D01*
X186782866Y-77519890D01*
X186760339Y-77547339D01*
X186732890Y-77569866D01*
X186701569Y-77586607D01*
X186667591Y-77596915D01*
X186626110Y-77601000D01*
X186024890Y-77601000D01*
X185983409Y-77596915D01*
X185949431Y-77586607D01*
X185918110Y-77569866D01*
X185890661Y-77547339D01*
X185868134Y-77519890D01*
X185851393Y-77488569D01*
X185841085Y-77454591D01*
X185837000Y-77413110D01*
X185837000Y-76736890D01*
X185841085Y-76695409D01*
X185851393Y-76661431D01*
X185868134Y-76630110D01*
X185890661Y-76602661D01*
X185918110Y-76580134D01*
X185949431Y-76563393D01*
X185983409Y-76553085D01*
X186024890Y-76549000D01*
X186626110Y-76549000D01*
X186667591Y-76553085D01*
X186667591Y-76553085D01*
G37*
G36*
X185092591Y-76553085D02*
G01*
X185126569Y-76563393D01*
X185157890Y-76580134D01*
X185185339Y-76602661D01*
X185207866Y-76630110D01*
X185224607Y-76661431D01*
X185234915Y-76695409D01*
X185239000Y-76736890D01*
X185239000Y-77413110D01*
X185234915Y-77454591D01*
X185224607Y-77488569D01*
X185207866Y-77519890D01*
X185185339Y-77547339D01*
X185157890Y-77569866D01*
X185126569Y-77586607D01*
X185092591Y-77596915D01*
X185051110Y-77601000D01*
X184449890Y-77601000D01*
X184408409Y-77596915D01*
X184374431Y-77586607D01*
X184343110Y-77569866D01*
X184315661Y-77547339D01*
X184293134Y-77519890D01*
X184276393Y-77488569D01*
X184266085Y-77454591D01*
X184262000Y-77413110D01*
X184262000Y-76736890D01*
X184266085Y-76695409D01*
X184276393Y-76661431D01*
X184293134Y-76630110D01*
X184315661Y-76602661D01*
X184343110Y-76580134D01*
X184374431Y-76563393D01*
X184408409Y-76553085D01*
X184449890Y-76549000D01*
X185051110Y-76549000D01*
X185092591Y-76553085D01*
X185092591Y-76553085D01*
G37*
G36*
X180254591Y-76528085D02*
G01*
X180288569Y-76538393D01*
X180319890Y-76555134D01*
X180347339Y-76577661D01*
X180369866Y-76605110D01*
X180386607Y-76636431D01*
X180396915Y-76670409D01*
X180401000Y-76711890D01*
X180401000Y-77388110D01*
X180396915Y-77429591D01*
X180386607Y-77463569D01*
X180369866Y-77494890D01*
X180347339Y-77522339D01*
X180319890Y-77544866D01*
X180288569Y-77561607D01*
X180254591Y-77571915D01*
X180213110Y-77576000D01*
X179611890Y-77576000D01*
X179570409Y-77571915D01*
X179536431Y-77561607D01*
X179505110Y-77544866D01*
X179477661Y-77522339D01*
X179455134Y-77494890D01*
X179438393Y-77463569D01*
X179428085Y-77429591D01*
X179424000Y-77388110D01*
X179424000Y-76711890D01*
X179428085Y-76670409D01*
X179438393Y-76636431D01*
X179455134Y-76605110D01*
X179477661Y-76577661D01*
X179505110Y-76555134D01*
X179536431Y-76538393D01*
X179570409Y-76528085D01*
X179611890Y-76524000D01*
X180213110Y-76524000D01*
X180254591Y-76528085D01*
X180254591Y-76528085D01*
G37*
G36*
X181866591Y-76528085D02*
G01*
X181900569Y-76538393D01*
X181931890Y-76555134D01*
X181959339Y-76577661D01*
X181981866Y-76605110D01*
X181998607Y-76636431D01*
X182008915Y-76670409D01*
X182013000Y-76711890D01*
X182013000Y-77388110D01*
X182008915Y-77429591D01*
X181998607Y-77463569D01*
X181981866Y-77494890D01*
X181959339Y-77522339D01*
X181931890Y-77544866D01*
X181900569Y-77561607D01*
X181866591Y-77571915D01*
X181825110Y-77576000D01*
X181223890Y-77576000D01*
X181182409Y-77571915D01*
X181148431Y-77561607D01*
X181117110Y-77544866D01*
X181089661Y-77522339D01*
X181067134Y-77494890D01*
X181050393Y-77463569D01*
X181040085Y-77429591D01*
X181036000Y-77388110D01*
X181036000Y-76711890D01*
X181040085Y-76670409D01*
X181050393Y-76636431D01*
X181067134Y-76605110D01*
X181089661Y-76577661D01*
X181117110Y-76555134D01*
X181148431Y-76538393D01*
X181182409Y-76528085D01*
X181223890Y-76524000D01*
X181825110Y-76524000D01*
X181866591Y-76528085D01*
X181866591Y-76528085D01*
G37*
G36*
X183441591Y-76528085D02*
G01*
X183475569Y-76538393D01*
X183506890Y-76555134D01*
X183534339Y-76577661D01*
X183556866Y-76605110D01*
X183573607Y-76636431D01*
X183583915Y-76670409D01*
X183588000Y-76711890D01*
X183588000Y-77388110D01*
X183583915Y-77429591D01*
X183573607Y-77463569D01*
X183556866Y-77494890D01*
X183534339Y-77522339D01*
X183506890Y-77544866D01*
X183475569Y-77561607D01*
X183441591Y-77571915D01*
X183400110Y-77576000D01*
X182798890Y-77576000D01*
X182757409Y-77571915D01*
X182723431Y-77561607D01*
X182692110Y-77544866D01*
X182664661Y-77522339D01*
X182642134Y-77494890D01*
X182625393Y-77463569D01*
X182615085Y-77429591D01*
X182611000Y-77388110D01*
X182611000Y-76711890D01*
X182615085Y-76670409D01*
X182625393Y-76636431D01*
X182642134Y-76605110D01*
X182664661Y-76577661D01*
X182692110Y-76555134D01*
X182723431Y-76538393D01*
X182757409Y-76528085D01*
X182798890Y-76524000D01*
X183400110Y-76524000D01*
X183441591Y-76528085D01*
X183441591Y-76528085D01*
G37*
G36*
X178679591Y-76528085D02*
G01*
X178713569Y-76538393D01*
X178744890Y-76555134D01*
X178772339Y-76577661D01*
X178794866Y-76605110D01*
X178811607Y-76636431D01*
X178821915Y-76670409D01*
X178826000Y-76711890D01*
X178826000Y-77388110D01*
X178821915Y-77429591D01*
X178811607Y-77463569D01*
X178794866Y-77494890D01*
X178772339Y-77522339D01*
X178744890Y-77544866D01*
X178713569Y-77561607D01*
X178679591Y-77571915D01*
X178638110Y-77576000D01*
X178036890Y-77576000D01*
X177995409Y-77571915D01*
X177961431Y-77561607D01*
X177930110Y-77544866D01*
X177902661Y-77522339D01*
X177880134Y-77494890D01*
X177863393Y-77463569D01*
X177853085Y-77429591D01*
X177849000Y-77388110D01*
X177849000Y-76711890D01*
X177853085Y-76670409D01*
X177863393Y-76636431D01*
X177880134Y-76605110D01*
X177902661Y-76577661D01*
X177930110Y-76555134D01*
X177961431Y-76538393D01*
X177995409Y-76528085D01*
X178036890Y-76524000D01*
X178638110Y-76524000D01*
X178679591Y-76528085D01*
X178679591Y-76528085D01*
G37*
G36*
X177029591Y-76478085D02*
G01*
X177063569Y-76488393D01*
X177094890Y-76505134D01*
X177122339Y-76527661D01*
X177144866Y-76555110D01*
X177161607Y-76586431D01*
X177171915Y-76620409D01*
X177176000Y-76661890D01*
X177176000Y-77338110D01*
X177171915Y-77379591D01*
X177161607Y-77413569D01*
X177144866Y-77444890D01*
X177122339Y-77472339D01*
X177094890Y-77494866D01*
X177063569Y-77511607D01*
X177029591Y-77521915D01*
X176988110Y-77526000D01*
X176386890Y-77526000D01*
X176345409Y-77521915D01*
X176311431Y-77511607D01*
X176280110Y-77494866D01*
X176252661Y-77472339D01*
X176230134Y-77444890D01*
X176213393Y-77413569D01*
X176203085Y-77379591D01*
X176199000Y-77338110D01*
X176199000Y-76661890D01*
X176203085Y-76620409D01*
X176213393Y-76586431D01*
X176230134Y-76555110D01*
X176252661Y-76527661D01*
X176280110Y-76505134D01*
X176311431Y-76488393D01*
X176345409Y-76478085D01*
X176386890Y-76474000D01*
X176988110Y-76474000D01*
X177029591Y-76478085D01*
X177029591Y-76478085D01*
G37*
G36*
X175454591Y-76478085D02*
G01*
X175488569Y-76488393D01*
X175519890Y-76505134D01*
X175547339Y-76527661D01*
X175569866Y-76555110D01*
X175586607Y-76586431D01*
X175596915Y-76620409D01*
X175601000Y-76661890D01*
X175601000Y-77338110D01*
X175596915Y-77379591D01*
X175586607Y-77413569D01*
X175569866Y-77444890D01*
X175547339Y-77472339D01*
X175519890Y-77494866D01*
X175488569Y-77511607D01*
X175454591Y-77521915D01*
X175413110Y-77526000D01*
X174811890Y-77526000D01*
X174770409Y-77521915D01*
X174736431Y-77511607D01*
X174705110Y-77494866D01*
X174677661Y-77472339D01*
X174655134Y-77444890D01*
X174638393Y-77413569D01*
X174628085Y-77379591D01*
X174624000Y-77338110D01*
X174624000Y-76661890D01*
X174628085Y-76620409D01*
X174638393Y-76586431D01*
X174655134Y-76555110D01*
X174677661Y-76527661D01*
X174705110Y-76505134D01*
X174736431Y-76488393D01*
X174770409Y-76478085D01*
X174811890Y-76474000D01*
X175413110Y-76474000D01*
X175454591Y-76478085D01*
X175454591Y-76478085D01*
G37*
M02*
